# xmcd CD database file
#
# Track frame offsets:
#	150
#	20712
#	43341
#	66421
#	86285
#	107438
#	127480
#	151271
#	168309
#	185280
#	216377
#
# Disc length: 3207 seconds
#
# Revision: 2
# Processed by: cddbd v1.5.1PL0 Copyright (c) Steve Scherf et al.
# Submitted via: CDex 1.51
#
DISCID=9c0c850b
DTITLE=Jumprava - Laika Atshkjiriibu Romance
DYEAR=1998
DGENRE=New Age
TTITLE0=Pastorale
TTITLE1=Ena
TTITLE2=Dievibas
TTITLE3=Viirs Ar Suni
TTITLE4=Dzimsanas Diena
TTITLE5=Laika Atskiribu Romance
TTITLE6=Bidmeijers Un Nave
TTITLE7=Ta Ir Labak
TTITLE8=Auto
TTITLE9=Jaganatha
TTITLE10=Lena Upe
EXTD=YEAR: 1998
EXTT0=
EXTT1=
EXTT2=
EXTT3=
EXTT4=
EXTT5=
EXTT6=
EXTT7=
EXTT8=
EXTT9=
EXTT10=
PLAYORDER=
